<svg width="81" height="80" viewBox="0 0 81 80" fill="none" xmlns="http://www.w3.org/2000/svg">
<path d="M40.4219 0C44.0743 4.24029 48.1027 8.17813 52.4589 11.7678C49.5562 20.6919 47.9936 30.1729 47.9936 40C47.9936 49.8271 49.5562 59.3081 52.4589 68.2322C48.1027 71.8219 44.0743 75.7597 40.4219 80C36.7695 75.7597 32.7411 71.8219 28.3849 68.2322C31.2875 59.3081 32.8502 49.8271 32.8502 40C32.8502 30.173 31.2875 20.6919 28.3849 11.7678C32.7411 8.17814 36.7695 4.24029 40.4219 0Z" fill="url(#paint0_linear_2992_33912)"/>
<path d="M20.0585 62.0623C15.4474 58.9988 10.5537 56.2914 5.42188 53.9822C6.84542 49.5593 7.61121 44.8644 7.61121 40C7.61121 35.1356 6.84542 30.4407 5.42187 26.0178C10.5537 23.7086 15.4474 21.0012 20.0585 17.9377C21.8216 25.0203 22.7546 32.4069 22.7546 40C22.7546 47.5931 21.8216 54.9797 20.0585 62.0623Z" fill="url(#paint1_linear_2992_33912)"/>
<path d="M58.0891 40C58.0891 47.5931 59.0221 54.9797 60.7853 62.0623C65.3964 58.9988 70.29 56.2914 75.4219 53.9822C73.9983 49.5593 73.2325 44.8644 73.2325 40C73.2325 35.1356 73.9983 30.4407 75.4219 26.0178C70.29 23.7086 65.3964 21.0012 60.7853 17.9377C59.0221 25.0203 58.0891 32.4069 58.0891 40Z" fill="url(#paint2_linear_2992_33912)"/>
<defs>
<linearGradient id="paint0_linear_2992_33912" x1="40.4219" y1="0" x2="40.4219" y2="80" gradientUnits="userSpaceOnUse">
<stop stop-color="#874FFF"/>
<stop offset="1" stop-color="#522FD4"/>
</linearGradient>
<linearGradient id="paint1_linear_2992_33912" x1="40.4219" y1="0" x2="40.4219" y2="80" gradientUnits="userSpaceOnUse">
<stop stop-color="#874FFF"/>
<stop offset="1" stop-color="#522FD4"/>
</linearGradient>
<linearGradient id="paint2_linear_2992_33912" x1="40.4219" y1="0" x2="40.4219" y2="80" gradientUnits="userSpaceOnUse">
<stop stop-color="#874FFF"/>
<stop offset="1" stop-color="#522FD4"/>
</linearGradient>
</defs>
</svg>
