<svg width="46" height="64" viewBox="0 0 46 64" fill="none" xmlns="http://www.w3.org/2000/svg">
<path d="M37.8375 30.6673L37.818 30.6479L45.8328 22.6423L38.8899 15.7073L45.6093 8.99545L41.7169 5.10745L34.9975 11.8193L23.1648 0L0.5 22.639L8.42409 30.5541L8.39818 30.58L19.2691 41.4386L0.57448 60.112L4.4669 64L20.4155 48.0695V63.311H25.9206V48.0825L41.7752 63.9191L45.6676 60.0311L27.054 41.4386L37.8407 30.6641L37.8375 30.6673ZM38.0447 22.6423L25.9173 34.7559V28.6651L34.9975 19.5953L38.0479 22.6423H38.0447ZM25.9173 20.8891V10.5254L31.1051 15.7073L25.9173 20.8891ZM20.4122 10.5254V34.7559L8.28484 22.6423L20.4122 10.5287V10.5254Z" fill="#F2F2E7"/>
</svg>
