<svg width="40" height="56" viewBox="0 0 40 56" fill="none" xmlns="http://www.w3.org/2000/svg">
<path d="M32.8373 26.8339L32.8203 26.8169L39.8332 19.812L33.7582 13.7439L39.6377 7.87102L36.2318 4.46902L30.3523 10.3419L19.9987 0L0.166992 19.8092L7.10057 26.7349L7.0779 26.7575L16.59 36.2588L0.232163 52.598L3.63803 56L17.593 42.0608V55.3972H22.41V42.0722L36.2828 55.9292L39.6887 52.5272L23.4017 36.2588L32.8401 26.8311L32.8373 26.8339ZM33.0186 19.812L22.4071 30.4114V25.082L30.3523 17.1459L33.0214 19.812H33.0186ZM22.4071 18.278V9.20975L26.9464 13.7439L22.4071 18.278ZM17.5902 9.20975V30.4114L6.97873 19.812L17.5902 9.21257V9.20975Z" fill="#B0B2A3"/>
</svg>
